<svg id="Capa_1" enable-background="new 0 0 512 512" height="512" viewBox="0 0 512 512" width="512" xmlns="http://www.w3.org/2000/svg"><g><path id="XMLID_1355_" d="m512 201.906-152 74.754v93.678l152 74.754z" fill="#c3dafd"/><path id="XMLID_480_" d="m360 370.338v-48.385h152v123.139z" fill="#a1b8d8"/><circle id="XMLID_1352_" cx="232.5" cy="128.5" fill="#213b82" r="82.5"/><circle id="XMLID_1349_" cx="112.5" cy="143.5" fill="#2b4c9f" r="67.5"/><path id="XMLID_1358_" d="m0 181h390v285h-390z" fill="#e4f3ff"/><path id="XMLID_421_" d="m0 321.953h390v144.047h-390z" fill="#c3dafd"/><path d="m134.906 245.182 153.541 76.754-153.541 76.788z" fill="#c21d75"/><g><g><path d="m134.906 245.182 153.541 76.754-.035.017h-153.506z" fill="#dc4c69"/></g></g><path d="m89.906 399.819c-11.204 0-82.451 0-89.864 0v-30h89.864z" fill="#a1b8d8"/><path d="m89.906 275.819c-11.204 0-82.451 0-89.864 0v-30h89.864z" fill="#c3dafd"/></g></svg>